<svg data-icon-name="cloudArmorNewIcon" viewBox="0 0 18 18" width="18" height="18">
  <path fill="none" d="M-1-1h2.1v2.1H-1z"></path>
  <g stroke="null">
    <circle cx="6.624" cy="5.998" r="1.491" fill="#aecbfa"></circle>
    <circle cx="10.351" cy="7.488" r="1.491" fill="#aecbfa"></circle>
    <circle cx="11.096" cy="11.96" r="1.491" fill="#aecbfa"></circle>
    <path fill="#669df6" d="M5.573 7.05a1.49 1.49 0 01-.44-1.052L2.9 8.234v2.98L6.624 7.49a1.49 1.49 0 01-1.05-.44zM9.3 8.54a1.49 1.49 0 01-.44-1.052l-5.12 5.12 1.118 1.864L10.35 8.98a1.49 1.49 0 01-1.05-.44zm.746 4.47a1.49 1.49 0 01-.44-1.05L6.2 15.367l2.13.85 2.766-2.766a1.49 1.49 0 01-1.05-.44z"></path>
    <path fill="#4285f4" d="M8.86 1.526L5.134 14.942 8.86 1.526l5.963 2.236v7.453l-2.236 3.727-3.727 1.49v1.49l3.727-1.49 1.49-.745 2.237-3.727V3.016L8.86.036v1.49z"></path>
    <path fill="#aecbfa" d="M5.134 14.942l-2.236-3.727V3.762L8.86 1.526l.008-1.49-7.46 2.98v8.944l2.235 3.727 1.49.746 3.735 1.49-.008-1.49-3.726-1.49z"></path>
  </g>
</svg>
