<svg data-icon-name="cloudNatIcon" viewBox="0 0 18 18" width="18" height="18" fill-rule="evenodd" fill="#1967d2">
  <path fill-rule="nonzero" d="M1.5 7.5a1.5 1.5 0 100 3 1.5 1.5 0 000-3zm0 1.928A.428.428 0 111.927 9a.42.42 0 01-.427.428zm2.25 2.82a1.5 1.5 0 100 3 1.5 1.5 0 000-3zm0 1.927a.428.428 0 110-.855.428.428 0 010 .855zm0-11.423a1.5 1.5 0 100 3 1.5 1.5 0 000-3zm0 1.928a.42.42 0 01-.428-.427.427.427 0 01.856 0 .42.42 0 01-.428.427z"></path
    ><path d="M15 11.25v-4.5L18 9zM7.072 3.502H4.5v1.5h3.54a9.6 9.6 0 00-.967-1.5zm.983 9.496h-3v1.5h2.04c.366-.47.687-.972.96-1.5z"></path>
  <path d="M6.75 18L6 16.65A9.637 9.637 0 009.75 9 9.802 9.802 0 006 1.35L6.75 0a11.288 11.288 0 014.5 9 11.25 11.25 0 01-4.5 9zM12 8.25c0 .248.037.495.037.75s0 .502-.037.75h4.058v-1.5H12z"></path>
  <path d="M9 9v-.75H2.25v1.5H9V9z"></path>
</svg>
