<svg data-icon-name="networkSecuritySectionIcon" viewBox="0 0 24 24" width="24" height="24" fill="#1967d2" fill-rule="evenodd">
  <path d="M7.47 12.852l3.355 3.323A1.266 1.266 0 0012 17.913v-5.316h-.422v2.827l-3.27-3.188c.07-.096.128-.2.177-.31H12v10.74c-5.16-1.26-9-6.45-9-12V4.5l9-3.75v9.825H8.485a1.688 1.688 0 10-1.015 2.277zM12 7.112v-2.53a1.266 1.266 0 00-.422 2.458V9.9H12V7.112z"></path>
  <path fill="#4785db" d="M16.514 9.654L13.202 6.3l-.013-.02A1.266 1.266 0 0012 4.58V.75l9 3.75v6.166c0 5.55-3.84 10.74-9 12v-4.754a1.266 1.266 0 00.422-2.46v-2.855H12v-.672h3.515a1.688 1.688 0 101-2.27zm-.838.633c-.062.09-.116.186-.16.288H12V9.9h.422V7.04l.034-.013-.02.015 3.24 3.245z"></path>
</svg>
