<svg data-icon-name="iamAdminSectionIcon" viewBox="0 0 24 24" width="24" height="24" fill="#1967d2" fill-rule="evenodd">
  <path d="M12 2.084V5.44a2.56 2.56 0 010 5.12V12c1.335 0 4 .824 4 2.46v1.265c-.065.094-.126.19-.195.283A7.433 7.433 0 0112 18.738v2.827a11.062 11.062 0 008-10.667v-5.48l-8-3.334z" fill="#4785db"></path>
  <path d="M12 2.084V5.44a2.56 2.56 0 000 5.12V12c-1.335 0-4 .824-4 2.46v1.265c.065.094.126.19.195.283A7.433 7.433 0 0012 18.738v2.827a11.062 11.062 0 01-8-10.667v-5.48l8-3.334z"></path>
</svg>
