<svg data-icon-name="bigtableSectionIcon" viewBox="0 0 24 24" width="24" height="24" fill="#1967d2" fill-rule="evenodd">
  <path d="M16.72 4.87c0-.297-.186-.572-.445-.72l.692.4s-5.742-3.39-5.985-3.52c-.244-.127-.436.178-.423.223.22.776.69 1.468 1.41 1.88l4.75 2.74v-1z" fill="#4785db"></path>
  <path d="M18 5.64v6.92c0 .15-.05.288-.18.362l-1.1.65v-8.7c0-.3-.186-.574-.444-.723l1.33.76a.81.81 0 01.394.72z"></path>
  <path d="M11.774 13.697L8 11.424v.992l4 2.404v-1.062a.448.448 0 01-.226-.06z" fill="#4785db"></path>
  <path d="M12 13.758v1.063l4-2.37v-.99l-3.774 2.24c-.07.04-.226.06-.226.06z" fill="#75a4e4"></path>
  <path d="M12 15.805a.45.45 0 01-.226-.06L8 13.47v.734a.44.44 0 00.218.382l3.564 2.15c.06.035.128.05.195.053-.02-.04.023-.69.023-.99zm0-3.992l3.782-2.228-3.564-2.18a.432.432 0 00-.436 0l-3.564 2.15c-.045.027-.074.07-.106.108.032-.04.06-.08.106-.107L12 11.813zm-8.57-2.34l6.055-3.5c.13-.073.274-.098.403-.024l1.123.64-7.53 4.35c-.26.15-.48.46-.48.76l.01-1.54c0-.3.17-.56.43-.71z"></path>
  <path d="M12 11.813L8.218 9.556c-.045.026-.074.068-.106.107A.43.43 0 008 9.937v.466l4 2.405v-.995z" fill="#4785db"></path>
  <path d="M16 9.966a.44.44 0 00-.218-.38L12 11.812v.995l4-2.376v-.46z" fill="#75a4e4"></path>
  <path d="M11.925 20.787L7.323 18.13v1.034a.9.9 0 00.418.744 1176.09 1176.09 0 005.32 3.06c.2.102.35-.062.32-.197a3.028 3.028 0 00-1.44-1.98z" fill="#4785db"></path>
  <path d="M6.007 18.426L6 11.476c0-.15.08-.288.21-.363l1.106-.648.008 8.7c0 .297.17.604.43.753l-1.33-.77a.835.835 0 01-.417-.722z"></path>
  <path d="M8.6 4.04a.833.833 0 00-.82-.003 1501.91 1501.91 0 01-5.81 3.356c-.192.1-.125.392.04.44a3.03 3.03 0 002.345-.287l4.74-2.737a.83.83 0 01.78-.02l-1.277-.75z" fill="#4785db"></path>
  <path d="M9.918 3.293l5.767 3.433c.13.075.224.187.224.337V8.36L8.59 4.04a.835.835 0 00-.834 0l1.33-.765a.814.814 0 01.824.018z"></path>
  <path d="M21.994 16.137a3.027 3.027 0 00-2.374.277l-4.73 2.73a.828.828 0 01-.795.01l1.293.76a.83.83 0 00.826 0 5389.03 5389.03 0 005.813-3.36c.2-.118.12-.37-.033-.417z" fill="#4785db"></path>
  <path d="M14.057 20.68l-5.84-3.454a.417.417 0 01-.21-.362L8 15.58l7.388 4.333a.83.83 0 00.834 0l-1.33.767a.835.835 0 01-.835 0zM3.48 10.95c-.257.15-.477.46-.48.757l.005 6.766c0 .198.2.16.343.138.548-.09.985-.75.984-1.61v-6.09c0-.22.09-.43.243-.58l-1.095.64z"></path>
  <path d="M20.582 13.007A.83.83 0 0021 12.29l-.005-7.032c0-.35-.357-.248-.376-.23-.6.563-.96 1.133-.96 1.972v5.682c0 .298-.16.913-.42 1.063h.06l1.27-.738z" fill="#4785db"></path>
  <path d="M20.582 14.544l-5.99 3.466a.418.418 0 01-.418 0l-1.115-.635 7.52-4.368a.832.832 0 00.42-.72l-.01 1.534c0 .3-.16.58-.42.73z"></path>
  <path d="M12.226 15.744a.45.45 0 01-.226.06c0 .31-.046.99-.022.99a.432.432 0 00.24-.058l3.564-2.122a.44.44 0 00.218-.38V13.5l-3.774 2.244z" fill="#75a4e4"></path>
</svg>
