<svg data-icon-name="monitoringSectionIcon" viewBox="0 0 24 24" width="24" height="24" fill="#1967d2">
  <path d="M10.83 16.33h2.33v1.85h-2.33zM5.5 12.76L7.88 9.6a.55.55 0 01.37-.22.63.63 0 01.42.12l2.12 1.72 2.8-2.94a.54.54 0 01.4-.17.54.54 0 01.4.17l4.33 4.48H22V6a.74.74 0 00-.74-.74H2.74A.74.74 0 002 6v6.81z" fill="#75a4e4"></path>
  <path d="M18.48 13.87a.56.56 0 01-.4-.17L14 9.47l-2.74 2.89a.57.57 0 01-.76.05l-2.08-1.68-2.2 2.92a.56.56 0 01-.45.22H2v1.71a.75.75 0 00.74.75h18.52a.75.75 0 00.74-.75v-1.71zM9 18.18h6a.29.29 0 01.3.3.29.29 0 01-.3.3H9a.29.29 0 01-.3-.3.29.29 0 01.3-.3z" fill="#4785db"></path>
</svg>
