<svg data-icon-name="serviceDirectoryIcon" viewBox="0 0 18 18" width="18" height="18" aria-hidden="true" fill="#1967d2">
  <path d="M6.8 6.8h4.5l-.8.8h-3l-.7-.8zM15 4.9H3L2.4 6h13.1L15 4.9zM13.5 3h-9l-.6 1.1H14L13.5 3zm3 3.8l-.8 8.2H2.2l-.7-8.2h4.1l1.5 1.5h3.8l1.5-1.5h4.1zm-4.9 4.8c0-.3-.3-.6-.6-.6-.2 0-.4.2-.5.4h-1c0-.1-.1-.1-.1-.2l.4-.8h.1c.3 0 .6-.3.6-.6s-.3-.6-.6-.6c-.2 0-.4.2-.5.4h-.8c-.1-.1-.3-.2-.5-.2-.3 0-.6.3-.6.6s.3.6.6.6c.2 0 .4-.2.5-.4h.8c0 .1.1.1.1.2l-.4.8H9c-.2 0-.4.2-.5.4h-1c-.1-.2-.3-.4-.5-.4-.3 0-.6.3-.6.6s.3.6.6.6c.2 0 .4-.2.5-.4h1c0 .1.1.1.1.2l-.4.8h-.1c-.3 0-.6.3-.6.6s.3.6.6.6c.2 0 .4-.2.5-.4h.8c.1.2.3.4.5.4.3 0 .6-.3.6-.6s-.3-.6-.6-.6c-.2 0-.4.2-.5.4h-.8c0-.1-.1-.1-.1-.2l.4-.8H9c.2 0 .4-.2.5-.4h1c.1.2.3.4.5.4.4-.2.6-.5.6-.8z"></path>
</svg>
