<svg data-icon-name="trainingIcon" viewBox="0 0 18 18" width="18" height="18" fill="#1967d2">
  <path d="M8 13h2c0-1.176 2-2.463 2-4 0-1.836-1.343-3-3-3S6 7.164 6 9c0 1.537 2 2.824 2 4z"></path>
  <path d="M9 1.846V0l3.111 2.637L9 5.274V3.428c-3.007 0-5.444 2.48-5.444 5.538 0 1.529.609 2.913 1.594 3.915L4.05 14A7.159 7.159 0 012 8.966c0-3.933 3.134-7.12 7-7.12zm4.95 2.085A7.159 7.159 0 0116 8.966 7.159 7.159 0 0113.95 14l-1.1-1.119a5.568 5.568 0 001.594-3.915c0-1.53-.609-2.914-1.594-3.916l1.1-1.119zM8 14h2v1.5H8z"></path>
</svg>
